<svg width="120" height="180" viewBox="0 0 120 180" fill="none" xmlns="http://www.w3.org/2000/svg">
<path d="M22.5832 165.375H29.9832V166.655H22.5832V165.375ZM22.7432 172.595H21.2632V158.595H30.8632V159.875H22.7432V172.595ZM36.6271 172.595V158.595H38.1071V172.595H36.6271ZM51.5098 172.715C50.4432 172.715 49.4565 172.542 48.5498 172.195C47.6565 171.835 46.8765 171.335 46.2098 170.695C45.5565 170.055 45.0432 169.302 44.6698 168.435C44.3098 167.569 44.1298 166.622 44.1298 165.595C44.1298 164.569 44.3098 163.622 44.6698 162.755C45.0432 161.889 45.5632 161.135 46.2298 160.495C46.8965 159.855 47.6765 159.362 48.5698 159.015C49.4765 158.655 50.4632 158.475 51.5298 158.475C52.5965 158.475 53.5698 158.642 54.4498 158.975C55.3432 159.309 56.1032 159.815 56.7298 160.495L55.8098 161.435C55.2232 160.849 54.5765 160.429 53.8698 160.175C53.1632 159.922 52.4032 159.795 51.5898 159.795C50.7232 159.795 49.9232 159.942 49.1898 160.235C48.4698 160.515 47.8365 160.922 47.2898 161.455C46.7565 161.975 46.3365 162.589 46.0298 163.295C45.7365 163.989 45.5898 164.755 45.5898 165.595C45.5898 166.422 45.7365 167.189 46.0298 167.895C46.3365 168.602 46.7565 169.222 47.2898 169.755C47.8365 170.275 48.4698 170.682 49.1898 170.975C49.9232 171.255 50.7165 171.395 51.5698 171.395C52.3698 171.395 53.1232 171.275 53.8298 171.035C54.5498 170.795 55.2098 170.389 55.8098 169.815L56.6498 170.935C55.9832 171.522 55.2032 171.969 54.3098 172.275C53.4165 172.569 52.4832 172.715 51.5098 172.715ZM55.2298 170.755V165.595H56.6498V170.935L55.2298 170.755ZM63.5462 172.595V158.595H64.7662L71.1662 169.515H70.5262L76.8662 158.595H78.0862V172.595H76.6662V160.815H77.0062L71.1662 170.815H70.4662L64.5862 160.815H64.9662V172.595H63.5462ZM83.1153 172.595L89.5153 158.595H90.9753L97.3753 172.595H95.8153L89.9353 159.455H90.5353L84.6553 172.595H83.1153ZM85.6353 168.855L86.0753 167.655H94.2153L94.6553 168.855H85.6353Z" fill="black"/>
<g clip-path="url(#clip0_11_385)">
<path d="M40.1562 115.19C51.1962 115.19 60.1562 106.59 60.1562 95.9921V76.7936H40.1562C29.1163 76.7936 20.1562 85.3945 20.1562 95.9921C20.1562 106.59 29.1163 115.19 40.1562 115.19Z" fill="#0ACF83"/>
<path d="M20.1562 57.5952C20.1562 46.9977 29.1163 38.3968 40.1562 38.3968H60.1562V76.7936H40.1562C29.1163 76.7936 20.1562 68.1928 20.1562 57.5952Z" fill="#A259FF"/>
<path d="M20.1562 19.1984C20.1562 8.60089 29.1163 0 40.1562 0H60.1562V38.3968H40.1562C29.1163 38.3968 20.1562 29.7959 20.1562 19.1984Z" fill="#F24E1E"/>
<path d="M60.1562 0H80.1563C91.1963 0 100.156 8.60089 100.156 19.1984C100.156 29.7959 91.1963 38.3968 80.1563 38.3968H60.1562V0Z" fill="#FF7262"/>
<path d="M100.156 57.5952C100.156 68.1928 91.1963 76.7936 80.1563 76.7936C69.1163 76.7936 60.1562 68.1928 60.1562 57.5952C60.1562 46.9977 69.1163 38.3968 80.1563 38.3968C91.1963 38.3968 100.156 46.9977 100.156 57.5952Z" fill="#1ABCFE"/>
</g>
<defs>
<clipPath id="clip0_11_385">
<rect width="120" height="115.19" fill="white"/>
</clipPath>
</defs>
</svg>
