<svg width="120" height="180" viewBox="0 0 120 180" fill="none" xmlns="http://www.w3.org/2000/svg">
<path d="M38.7443 159.016H40.2043V173.016H38.7443V159.016ZM29.9843 173.016H28.5043V159.016H29.9843V173.016ZM38.8843 166.556H29.8243V165.256H38.8843V166.556ZM50.2014 173.016V160.296H45.2814V159.016H56.6014V160.296H51.6814V173.016H50.2014ZM61.6733 173.016V159.016H62.8933L69.2933 169.936H68.6533L74.9933 159.016H76.2133V173.016H74.7933V161.236H75.1333L69.2933 171.236H68.5933L62.7133 161.236H63.0933V173.016H61.6733ZM83.4825 173.016V159.016H84.9625V171.736H92.8025V173.016H83.4825Z" fill="black"/>
<g clip-path="url(#clip0_11_404)">
<path fill-rule="evenodd" clip-rule="evenodd" d="M16.6606 116.794L7.03125 0H112.841L103.202 116.776L59.8714 129.766L16.6606 116.794Z" fill="#E44D26"/>
<path fill-rule="evenodd" clip-rule="evenodd" d="M59.936 119.837L94.9489 109.34L103.187 9.54968H59.936V119.837Z" fill="#F16529"/>
<path d="M42.4078 52.867H59.9361V67.1912H30.2935L26.7207 23.8742H59.9361V38.1987H41.1972L42.4078 52.867Z" fill="#EBEBEB"/>
<path d="M59.8781 90.0856L59.9361 90.0689V104.972L59.8752 104.991L32.7411 96.8449L30.8853 74.3536H44.1825L45.1256 85.778L59.8781 90.0856Z" fill="#EBEBEB"/>
<path d="M59.8906 23.8742H93.0728L91.8867 38.1987H59.8906V23.8742Z" fill="#FFFBFB"/>
<path d="M59.8906 67.1912V52.867H90.6814L90.3582 56.7135L87.0462 96.8449L59.8906 104.984V90.0809L74.6644 85.7688L76.202 67.1912H59.8906Z" fill="#FFFBFB"/>
</g>
<defs>
<clipPath id="clip0_11_404">
<rect width="120" height="129.766" fill="white"/>
</clipPath>
</defs>
</svg>
