<svg width="133" height="180" viewBox="0 0 133 180" fill="none" xmlns="http://www.w3.org/2000/svg">
<path d="M8.25488 0H123.745V131.707H8.25488V0Z" fill="#F7DF1E"/>
<path d="M38.6203 110.064L47.4584 103.964C49.1635 107.412 50.7145 110.329 54.435 110.329C58.0012 110.329 60.2496 108.738 60.2496 102.55V60.466H71.1028V102.725C71.1028 115.544 64.5136 121.379 54.9002 121.379C46.2181 121.379 41.1783 116.251 38.6201 110.063" fill="#FFFBFB"/>
<path d="M77 108.738L85.837 102.903C88.1633 107.235 91.1868 110.418 96.5357 110.418C101.033 110.418 103.9 107.854 103.9 104.317C103.9 100.074 100.955 98.5706 95.9929 96.096L93.2803 94.7689C85.4499 90.968 80.2555 86.1939 80.2555 76.1149C80.2555 66.8319 86.4574 59.7588 96.1483 59.7588C103.048 59.7588 108.01 62.4998 111.575 69.6611L103.125 75.8494C101.264 72.0481 99.2493 70.5454 96.1485 70.5454C92.9699 70.5454 90.9542 72.844 90.9542 75.8494C90.9542 79.5627 92.9699 81.0661 97.6209 83.3649L100.334 84.691C109.56 89.2002 114.754 93.797 114.754 104.141C114.754 115.281 107.079 121.381 96.7685 121.381C86.6904 121.381 80.178 115.9 77 108.738Z" fill="#FFFBFB"/>
<path d="M4.06876 172.973C3.28209 172.973 2.54209 172.8 1.84876 172.453C1.16876 172.107 0.622091 171.613 0.208757 170.973L1.06876 169.973C1.45542 170.533 1.90209 170.96 2.40876 171.253C2.91542 171.547 3.47542 171.693 4.08876 171.693C5.82209 171.693 6.68876 170.667 6.68876 168.613V160.133H1.56876V158.853H8.14876V168.553C8.14876 170.033 7.80209 171.14 7.10876 171.873C6.42876 172.607 5.41542 172.973 4.06876 172.973ZM12.7629 172.853L19.1629 158.853H20.6229L27.0229 172.853H25.4629L19.5829 159.713H20.1829L14.3029 172.853H12.7629ZM15.2829 169.113L15.7229 167.913H23.8629L24.3029 169.113H15.2829ZM35.3038 172.853L29.1038 158.853H30.7038L36.5038 172.033H35.6238L41.4638 158.853H42.9638L36.7638 172.853H35.3038ZM45.0336 172.853L51.4336 158.853H52.8936L59.2936 172.853H57.7336L51.8536 159.713H52.4536L46.5736 172.853H45.0336ZM47.5536 169.113L47.9936 167.913H56.1336L56.5736 169.113H47.5536ZM70.2018 172.973C69.1485 172.973 68.1751 172.8 67.2818 172.453C66.3885 172.093 65.6151 171.593 64.9618 170.953C64.3085 170.313 63.7951 169.56 63.4218 168.693C63.0618 167.827 62.8818 166.88 62.8818 165.853C62.8818 164.827 63.0618 163.88 63.4218 163.013C63.7951 162.147 64.3085 161.393 64.9618 160.753C65.6285 160.113 66.4085 159.62 67.3018 159.273C68.1951 158.913 69.1685 158.733 70.2218 158.733C71.2351 158.733 72.1885 158.907 73.0818 159.253C73.9751 159.587 74.7285 160.093 75.3418 160.773L74.4018 161.713C73.8285 161.127 73.1951 160.707 72.5018 160.453C71.8085 160.187 71.0618 160.053 70.2618 160.053C69.4218 160.053 68.6418 160.2 67.9218 160.493C67.2018 160.773 66.5751 161.18 66.0418 161.713C65.5085 162.233 65.0885 162.847 64.7818 163.553C64.4885 164.247 64.3418 165.013 64.3418 165.853C64.3418 166.693 64.4885 167.467 64.7818 168.173C65.0885 168.867 65.5085 169.48 66.0418 170.013C66.5751 170.533 67.2018 170.94 67.9218 171.233C68.6418 171.513 69.4218 171.653 70.2618 171.653C71.0618 171.653 71.8085 171.52 72.5018 171.253C73.1951 170.987 73.8285 170.56 74.4018 169.973L75.3418 170.913C74.7285 171.593 73.9751 172.107 73.0818 172.453C72.1885 172.8 71.2285 172.973 70.2018 172.973ZM81.2044 172.853V158.853H86.4444C87.6311 158.853 88.6511 159.047 89.5044 159.433C90.3577 159.807 91.0111 160.353 91.4644 161.073C91.9311 161.78 92.1644 162.64 92.1644 163.653C92.1644 164.64 91.9311 165.493 91.4644 166.213C91.0111 166.92 90.3577 167.467 89.5044 167.853C88.6511 168.227 87.6311 168.413 86.4444 168.413H82.0244L82.6844 167.733V172.853H81.2044ZM90.7644 172.853L87.1644 167.773H88.7644L92.3844 172.853H90.7644ZM82.6844 167.853L82.0244 167.153H86.4044C87.8044 167.153 88.8644 166.847 89.5844 166.233C90.3177 165.62 90.6844 164.76 90.6844 163.653C90.6844 162.533 90.3177 161.667 89.5844 161.053C88.8644 160.44 87.8044 160.133 86.4044 160.133H82.0244L82.6844 159.433V167.853ZM98.3651 172.853V158.853H99.8451V172.853H98.3651ZM107.108 172.853V158.853H112.348C113.535 158.853 114.555 159.047 115.408 159.433C116.261 159.807 116.915 160.353 117.368 161.073C117.835 161.78 118.068 162.64 118.068 163.653C118.068 164.64 117.835 165.493 117.368 166.213C116.915 166.92 116.261 167.467 115.408 167.853C114.555 168.24 113.535 168.433 112.348 168.433H107.928L108.588 167.733V172.853H107.108ZM108.588 167.853L107.928 167.133H112.308C113.708 167.133 114.768 166.833 115.488 166.233C116.221 165.62 116.588 164.76 116.588 163.653C116.588 162.533 116.221 161.667 115.488 161.053C114.768 160.44 113.708 160.133 112.308 160.133H107.928L108.588 159.433V167.853ZM126.227 172.853V160.133H121.307V158.853H132.627V160.133H127.707V172.853H126.227Z" fill="black"/>
</svg>
