<svg width="120" height="180" viewBox="0 0 120 180" fill="none" xmlns="http://www.w3.org/2000/svg">
<path d="M45.7818 173.854C44.7285 173.854 43.7551 173.68 42.8618 173.334C41.9685 172.974 41.1951 172.474 40.5418 171.834C39.8885 171.194 39.3751 170.44 39.0018 169.574C38.6418 168.707 38.4618 167.76 38.4618 166.734C38.4618 165.707 38.6418 164.76 39.0018 163.894C39.3751 163.027 39.8885 162.274 40.5418 161.634C41.2085 160.994 41.9885 160.5 42.8818 160.154C43.7751 159.794 44.7485 159.614 45.8018 159.614C46.8151 159.614 47.7685 159.787 48.6618 160.134C49.5551 160.467 50.3085 160.974 50.9218 161.654L49.9818 162.594C49.4085 162.007 48.7751 161.587 48.0818 161.334C47.3885 161.067 46.6418 160.934 45.8418 160.934C45.0018 160.934 44.2218 161.08 43.5018 161.374C42.7818 161.654 42.1551 162.06 41.6218 162.594C41.0885 163.114 40.6685 163.727 40.3618 164.434C40.0685 165.127 39.9218 165.894 39.9218 166.734C39.9218 167.574 40.0685 168.347 40.3618 169.054C40.6685 169.747 41.0885 170.36 41.6218 170.894C42.1551 171.414 42.7818 171.82 43.5018 172.114C44.2218 172.394 45.0018 172.534 45.8418 172.534C46.6418 172.534 47.3885 172.4 48.0818 172.134C48.7751 171.867 49.4085 171.44 49.9818 170.854L50.9218 171.794C50.3085 172.474 49.5551 172.987 48.6618 173.334C47.7685 173.68 46.8085 173.854 45.7818 173.854ZM60.6053 173.854C59.5653 173.854 58.5653 173.687 57.6053 173.354C56.6587 173.007 55.9253 172.567 55.4053 172.034L55.9853 170.894C56.4787 171.374 57.1387 171.78 57.9653 172.114C58.8053 172.434 59.6853 172.594 60.6053 172.594C61.4853 172.594 62.1987 172.487 62.7453 172.274C63.3053 172.047 63.712 171.747 63.9653 171.374C64.232 171 64.3653 170.587 64.3653 170.134C64.3653 169.587 64.2053 169.147 63.8853 168.814C63.5787 168.48 63.172 168.22 62.6653 168.034C62.1587 167.834 61.5987 167.66 60.9853 167.514C60.372 167.367 59.7587 167.214 59.1453 167.054C58.532 166.88 57.9653 166.654 57.4453 166.374C56.9387 166.094 56.5253 165.727 56.2053 165.274C55.8987 164.807 55.7453 164.2 55.7453 163.454C55.7453 162.76 55.9253 162.127 56.2853 161.554C56.6587 160.967 57.2253 160.5 57.9853 160.154C58.7453 159.794 59.7187 159.614 60.9053 159.614C61.692 159.614 62.472 159.727 63.2453 159.954C64.0187 160.167 64.6853 160.467 65.2453 160.854L64.7453 162.034C64.1453 161.634 63.5053 161.34 62.8253 161.154C62.1587 160.967 61.512 160.874 60.8853 160.874C60.0453 160.874 59.352 160.987 58.8053 161.214C58.2587 161.44 57.852 161.747 57.5853 162.134C57.332 162.507 57.2053 162.934 57.2053 163.414C57.2053 163.96 57.3587 164.4 57.6653 164.734C57.9853 165.067 58.3987 165.327 58.9053 165.514C59.4253 165.7 59.992 165.867 60.6053 166.014C61.2187 166.16 61.8253 166.32 62.4253 166.494C63.0387 166.667 63.5987 166.894 64.1053 167.174C64.6253 167.44 65.0387 167.8 65.3453 168.254C65.6653 168.707 65.8253 169.3 65.8253 170.034C65.8253 170.714 65.6387 171.347 65.2653 171.934C64.892 172.507 64.3187 172.974 63.5453 173.334C62.7853 173.68 61.8053 173.854 60.6053 173.854ZM75.6176 173.854C74.5776 173.854 73.5776 173.687 72.6176 173.354C71.6709 173.007 70.9376 172.567 70.4176 172.034L70.9976 170.894C71.4909 171.374 72.1509 171.78 72.9776 172.114C73.8176 172.434 74.6976 172.594 75.6176 172.594C76.4976 172.594 77.2109 172.487 77.7576 172.274C78.3176 172.047 78.7243 171.747 78.9776 171.374C79.2443 171 79.3776 170.587 79.3776 170.134C79.3776 169.587 79.2176 169.147 78.8976 168.814C78.5909 168.48 78.1843 168.22 77.6776 168.034C77.1709 167.834 76.6109 167.66 75.9976 167.514C75.3843 167.367 74.7709 167.214 74.1576 167.054C73.5443 166.88 72.9776 166.654 72.4576 166.374C71.9509 166.094 71.5376 165.727 71.2176 165.274C70.9109 164.807 70.7576 164.2 70.7576 163.454C70.7576 162.76 70.9376 162.127 71.2976 161.554C71.6709 160.967 72.2376 160.5 72.9976 160.154C73.7576 159.794 74.7309 159.614 75.9176 159.614C76.7043 159.614 77.4843 159.727 78.2576 159.954C79.0309 160.167 79.6976 160.467 80.2576 160.854L79.7576 162.034C79.1576 161.634 78.5176 161.34 77.8376 161.154C77.1709 160.967 76.5243 160.874 75.8976 160.874C75.0576 160.874 74.3643 160.987 73.8176 161.214C73.2709 161.44 72.8643 161.747 72.5976 162.134C72.3443 162.507 72.2176 162.934 72.2176 163.414C72.2176 163.96 72.3709 164.4 72.6776 164.734C72.9976 165.067 73.4109 165.327 73.9176 165.514C74.4376 165.7 75.0043 165.867 75.6176 166.014C76.2309 166.16 76.8376 166.32 77.4376 166.494C78.0509 166.667 78.6109 166.894 79.1176 167.174C79.6376 167.44 80.0509 167.8 80.3576 168.254C80.6776 168.707 80.8376 169.3 80.8376 170.034C80.8376 170.714 80.6509 171.347 80.2776 171.934C79.9043 172.507 79.3309 172.974 78.5576 173.334C77.7976 173.68 76.8176 173.854 75.6176 173.854Z" fill="black"/>
<path fill-rule="evenodd" clip-rule="evenodd" d="M16.6609 118.168L7.03125 0H112.846L103.206 118.148L59.8744 131.293L16.6609 118.168Z" fill="#0071BC"/>
<path fill-rule="evenodd" clip-rule="evenodd" d="M60.0273 121.24L94.9976 110.714L103.191 9.84091H60.0273V121.24Z" fill="#29ABE2"/>
<path fill-rule="evenodd" clip-rule="evenodd" d="M29.0732 53.2552L30.2332 67.7267L60.0271 53.2552V38.7602L29.0732 53.2552Z" fill="#B3B3B3"/>
<path fill-rule="evenodd" clip-rule="evenodd" d="M93.025 23.2876L60.0273 38.7602V53.2552L91.8872 37.7591L93.025 23.2876Z" fill="#E6E6E6"/>
<path fill-rule="evenodd" clip-rule="evenodd" d="M60.0275 91.1196L59.9251 91.1364L45.1495 86.795L44.1842 75.2519H30.8862L32.7419 97.9924L59.9222 106.226L60.0275 106.199V91.1196Z" fill="#E6E6E6"/>
<path fill-rule="evenodd" clip-rule="evenodd" d="M60.0273 53.2552V67.7267H76.2042L74.7339 86.6471L60.0273 91.1321V106.211L87.1174 97.9765L90.6846 53.2552H60.0273Z" fill="#FFFBFB"/>
<path fill-rule="evenodd" clip-rule="evenodd" d="M60.0271 53.2552H29.0732L30.2332 67.7267H60.0271V53.2552Z" fill="#E6E6E6"/>
<path fill-rule="evenodd" clip-rule="evenodd" d="M60.0273 37.7591V23.2876H59.8929H26.7217L27.8954 37.7591H60.0273Z" fill="#E6E6E6"/>
<path fill-rule="evenodd" clip-rule="evenodd" d="M60.0273 23.2876V37.5776V37.7591H91.8872L93.025 23.2876H60.0273Z" fill="#FFFBFB"/>
</svg>
